<svg id="Capa_1" enable-background="new 0 0 512 512" height="512" viewBox="0 0 512 512" width="512" xmlns="http://www.w3.org/2000/svg"><g><g><path clip-rule="evenodd" d="m128.988 292.194c66.977-1.19 83.587-19.189 122.759 19.983l17.545 17.545 60.43-60.43-17.545-17.545c-39.172-39.172-21.173-55.781-19.983-122.759.368-19.643-6.916-39.427-21.825-54.336l-42.8-42.8c-29.138-29.138-76.813-29.138-105.95 0l-44.898 44.869-44.869 44.897c-29.138 29.138-29.138 76.813 0 105.95l42.8 42.8c14.909 14.91 34.694 22.194 54.336 21.826zm29.109-84.523c5.584 5.612 5.584 14.767 0 20.379l-9.92 9.92c-11.253 11.224-29.875 11.224-41.127 0l-42.8-42.8c-11.253-11.253-11.253-29.903 0-41.156l44.897-44.869 44.869-44.897c11.253-11.253 29.903-11.253 41.156 0l42.8 42.8c11.224 11.253 11.224 29.875 0 41.127l-9.92 9.92c-5.612 5.584-14.767 5.584-20.379 0l-6.576-6.576c-7.568-7.568-19.983-7.568-27.579 0l-21.995 21.995c-7.568 7.596-7.568 20.011 0 27.579z" fill="#e7e9ef" fill-rule="evenodd"/></g><g><path clip-rule="evenodd" d="m269.292 344.517 25.68 25.68 75.225-75.225-25.68-25.68c-4.053-4.082-10.714-4.082-14.796 0l-60.43 60.43c-4.081 4.081-4.081 10.742.001 14.795z" fill="#ffda8f" fill-rule="evenodd"/></g><g><path clip-rule="evenodd" d="m294.971 385.758 97.476 97.476c5.782 5.782 12.415 10.232 19.501 13.322 16.44 7.199 35.317 7.199 51.756 0 7.114-3.09 13.747-7.54 19.529-13.322 5.187-5.187 9.269-11.054 12.301-17.29 8.56-17.687 8.56-38.548 0-56.206-3.033-6.264-7.114-12.131-12.301-17.29l-97.476-97.476c-4.28-4.28-11.281-4.28-15.561 0l-75.225 75.225c-4.28 4.28-4.28 11.281 0 15.561zm127.322 36.535c8.588-8.588 22.505-8.588 31.094 0 8.56 8.588 8.56 22.505 0 31.094-8.588 8.56-22.505 8.56-31.094 0-8.588-8.588-8.588-22.505 0-31.094z" fill="#ff7d95" fill-rule="evenodd"/></g><g><path d="m202.242 57.179c-15.246-15.244-40.052-15.245-55.299.002l-89.764 89.764c-7.33 7.331-11.368 17.15-11.368 27.649 0 10.498 4.038 20.317 11.368 27.648l42.808 42.808c7.616 7.596 17.618 11.395 27.623 11.395 10.006 0 20.015-3.801 27.638-11.403l9.92-9.92c.006-.006.012-.012.018-.019 9.459-9.507 9.459-24.977-.018-34.503l-6.576-6.576c-3.698-3.697-3.692-9.732 0-13.437l21.982-21.982c3.719-3.707 9.753-3.711 13.451-.013l6.593 6.593c9.51 9.461 24.98 9.458 34.503-.018l9.929-9.929c15.194-15.233 15.194-40.018-.009-55.26zm28.658 83.927-9.903 9.903c-1.699 1.692-4.572 1.693-6.255.018l-6.577-6.576c-11.481-11.481-30.19-11.485-41.719 0l-22.009 22.009c-11.473 11.517-11.467 30.226.014 41.707l6.558 6.557c1.691 1.701 1.691 4.574 0 6.275l-9.894 9.893c-7.32 7.301-19.687 7.301-26.995.009l-42.799-42.799c-3.554-3.553-5.511-8.35-5.511-13.507s1.957-9.954 5.509-13.505l89.768-89.768c3.661-3.661 8.583-5.491 13.508-5.491 4.922 0 9.847 1.831 13.507 5.491l42.791 42.79c7.3 7.318 7.3 19.685.007 26.994z"/><path d="m490.304 385.376-97.476-97.475c-3.959-3.959-9.233-6.139-14.851-6.139-2.058 0-4.067.299-5.985.864l-20.38-20.381c-3.842-3.868-8.973-6.004-14.446-6.014-.013 0-.024 0-.037 0-1.907 0-3.768.274-5.553.773l-12.328-12.329c-25.139-25.138-23.827-37.27-20.323-69.694 1.307-12.1 2.935-27.16 3.266-45.806.437-23.321-8.353-45.196-24.751-61.594l-42.8-42.799c-15.982-15.981-37.306-24.782-60.046-24.782s-44.065 8.801-60.044 24.78l-89.768 89.768c-15.981 15.981-24.782 37.306-24.782 60.046s8.801 44.065 24.782 60.046l42.799 42.799c16.4 16.399 38.28 25.198 61.584 24.753 18.656-.332 33.715-1.959 45.816-3.267 32.426-3.504 44.556-4.816 69.694 20.323l12.328 12.328c-.503 1.797-.776 3.671-.773 5.591.01 5.474 2.145 10.604 5.99 14.422l20.405 20.405c-.565 1.918-.863 3.927-.863 5.984 0 5.618 2.18 10.893 6.134 14.848l27.466 27.494c3.903 3.907 10.235 3.91 14.141.007s3.91-10.234.007-14.141l-27.469-27.498c-.232-.232-.281-.514-.281-.71 0-.195.049-.477.281-.709l75.225-75.225c0-.001.001-.001.001-.002.232-.231.514-.28.708-.28.195 0 .478.049.71.282l97.476 97.475c21.131 21.131 21.131 55.514 0 76.645-21.129 21.132-55.512 21.132-76.646 0l-6.065-6.065c-3.905-3.904-10.236-3.905-14.141 0-3.906 3.904-3.906 10.236-.001 14.141l6.065 6.066c14.468 14.462 33.467 21.694 52.467 21.694 19.001 0 38-7.232 52.465-21.697 28.927-28.928 28.927-75.998-.001-104.927zm-231.487-80.27c-31.909-31.908-52.265-29.707-85.985-26.064-12.312 1.331-26.266 2.839-44.032 3.155-17.854.326-34.557-6.377-47.077-18.898l-42.799-42.799c-12.204-12.204-18.925-28.506-18.925-45.905 0-17.398 6.721-33.701 18.927-45.907l89.764-89.764c12.203-12.204 28.506-18.924 45.905-18.924 17.398 0 33.701 6.721 45.904 18.925l42.8 42.799c12.521 12.521 19.232 29.24 18.898 47.088-.316 17.756-1.824 31.71-3.155 44.022-3.644 33.722-5.844 54.076 26.064 85.984l10.474 10.475-46.288 46.289zm36.154 50.95-18.633-18.634c-.03-.029-.108-.107-.108-.291 0-.206.1-.306.133-.339l60.428-60.429c.033-.033.133-.132.339-.132h.001c.185 0 .263.079.315.132l18.609 18.609z"/><path d="m460.47 460.446c12.423-12.465 12.423-32.747-.012-45.223-12.471-12.469-32.763-12.471-45.236 0-12.471 12.471-12.471 32.764.012 45.246 6.23 6.21 14.411 9.315 22.598 9.315 8.193 0 16.391-3.113 22.638-9.338zm-31.106-31.082c2.339-2.339 5.41-3.507 8.481-3.507 3.066 0 6.131 1.166 8.46 3.495 4.665 4.68 4.665 12.295.023 16.952-4.679 4.664-12.295 4.665-16.965.011-4.674-4.672-4.674-12.277.001-16.951z"/><path d="m350.136 435.628c-4.94 2.47-6.942 8.476-4.472 13.415l.028.057c1.749 3.497 5.261 5.507 8.917 5.507 1.509 0 3.042-.342 4.484-1.063 4.939-2.47 6.927-8.504 4.458-13.444-2.469-4.939-8.478-6.943-13.415-4.472z"/></g></g></svg>