<svg id="Capa_1" enable-background="new 0 0 497 497" height="512" viewBox="0 0 497 497" width="512" xmlns="http://www.w3.org/2000/svg"><g><circle cx="231.203" cy="248.5" fill="#a4e6ff" r="231.203"/><path d="m150.019 321.212c0 66.368 34.482 124.829 86.468 158.423 125.248-2.81 225.918-105.213 225.918-231.136 0-28.382-5.125-55.563-14.482-80.685-30.87-22.082-68.65-35.093-109.414-35.093-103.933.001-188.49 84.558-188.49 188.491z" fill="#5bd6fd"/><circle cx="231.203" cy="248.5" fill="#ececec" r="179.857"/><path d="m150.019 321.212c0 36.375 10.368 70.369 28.288 99.203 16.731 5.158 34.494 7.942 52.896 7.942 99.174 0 179.857-80.684 179.857-179.857 0-42.752-15.003-82.06-40.008-112.958-10.574-1.848-21.446-2.819-32.542-2.819-103.934-.001-188.491 84.556-188.491 188.489z" fill="#dededc"/><circle cx="338.51" cy="321.212" fill="#b0ebce" r="158.49"/><ellipse cx="338.51" cy="321.212" fill="#ececec" rx="113.35" ry="113.349" transform="matrix(.973 -.23 .23 .973 -64.744 86.366)"/><g><g><path d="m275.866 327.161c-4.143 0-7.5-3.358-7.5-7.5v-12.038c0-4.142 3.357-7.5 7.5-7.5s7.5 3.358 7.5 7.5v12.038c0 4.142-3.358 7.5-7.5 7.5z" fill="#423e4f"/></g><g><path d="m401.154 327.161c-4.143 0-7.5-3.358-7.5-7.5v-12.038c0-4.142 3.357-7.5 7.5-7.5s7.5 3.358 7.5 7.5v12.038c0 4.142-3.358 7.5-7.5 7.5z" fill="#423e4f"/></g><g><path d="m338.51 334.326c-8.498 0-16.578-3.68-22.17-10.097-2.722-3.123-2.396-7.86.727-10.582 3.122-2.721 7.859-2.396 10.582.727 2.742 3.147 6.701 4.951 10.861 4.951s8.119-1.805 10.862-4.952c2.721-3.123 7.459-3.448 10.581-.726 3.123 2.722 3.447 7.459.726 10.582-5.592 6.417-13.673 10.097-22.169 10.097z" fill="#423e4f"/></g></g></g></svg>