<svg id="Layer_1" enable-background="new 0 0 463.317 463.317" height="512" viewBox="0 0 463.317 463.317" width="512" xmlns="http://www.w3.org/2000/svg"><g><path d="m447.625 422.329c-3.77 10.73-13.9 17.91-25.26 17.91h-122.67c-11.36 0-21.49-7.18-25.26-17.91-15.994-45.582-15.283-43.045-15.55-45.67-.322-2.951-1.987 11.212 32.81-238.69h-3.9c-8.83 0-16-7.17-16-16v-19.31c0-8.84 7.17-16 16-16h9.66c0-35.11 28.46-63.58 63.58-63.58 35.11 0 63.57 28.47 63.57 63.58h9.66c8.83 0 16 7.16 16 16v19.31c0 8.83-7.17 16-16 16h-3.9l32.74 234.85c.726 5.12.462 4.074-15.48 49.51z" fill="#d6f4fc"/></g><path d="m364.541 45.917c-19.292 5.355-36.035 19.68-43.206 40.741h-23.88c0-35.334 28.828-63.95 64.264-63.576 13.463.142 15.796 19.234 2.822 22.835z" fill="#f1fafc"/><path d="m334.195 440.239h-34.5c-11.36 0-21.49-7.18-25.26-17.91-15.994-45.582-15.283-43.045-15.55-45.67-.304-2.782-2.079 11.571 30.89-224.9 1.1-7.91 7.86-13.79 15.84-13.79h2.19c9.72 0 17.19 8.59 15.85 18.21l-30.2 216.64c-.728 5.129-.472 4.045 15.48 49.51 3.77 10.73 13.9 17.91 25.26 17.91z" fill="#f1fafc"/><path d="m463.175 376.659c-.267 2.624.44.098-15.55 45.67-3.77 10.73-13.9 17.91-25.26 17.91h-122.67c-11.36 0-21.49-7.18-25.26-17.91-15.994-45.582-15.283-43.045-15.55-45.67z" fill="#42434d"/><path d="m433.945 163.619h-145.83l3.58-25.65h138.67z" fill="#bdeffc"/><path d="m450.265 102.659v19.31c0 8.83-7.17 16-16 16-6.385 0-140.06 0-146.47 0-8.83 0-16-7.17-16-16v-19.31c0-8.84 7.17-16 16-16h146.47c8.83 0 16 7.16 16 16z" fill="#befa91"/><g><path d="m188.855 422.329c-3.77 10.73-13.9 17.91-25.26 17.91h-122.67c-11.36 0-21.49-7.18-25.26-17.91-15.994-45.582-15.283-43.045-15.55-45.67-.322-2.951-1.987 11.212 32.81-238.69h-3.9c-8.83 0-16-7.17-16-16v-19.31c0-8.84 7.17-16 16-16h9.66c0-35.11 28.46-63.58 63.58-63.58 35.11 0 63.57 28.47 63.57 63.58h9.66c8.83 0 16 7.16 16 16v19.31c0 8.83-7.17 16-16 16h-3.9l32.74 234.85c.728 5.133.195 4.836-15.48 49.51z" fill="#d6f4fc"/></g><path d="m191.495 102.659v19.31c0 8.83-7.17 16-16 16-6.385 0-140.06 0-146.47 0-8.83 0-16-7.17-16-16v-19.31c0-8.84 7.17-16 16-16h146.47c8.83 0 16 7.16 16 16z" fill="#fe4f60"/><path d="m105.771 45.917c-19.292 5.355-36.035 19.68-43.206 40.741h-23.88c0-35.334 28.828-63.95 64.264-63.576 13.463.142 15.796 19.234 2.822 22.835z" fill="#f1fafc"/><g><path d="m102.265 327.659c-4.971 0-9-4.029-9-9v-117.12c0-4.971 4.029-9 9-9s9 4.029 9 9v117.12c0 4.97-4.029 9-9 9z" fill="#fff"/></g><g><path d="m338.725 327.659c-4.971 0-9-4.029-9-9v-117.12c0-4.971 4.029-9 9-9s9 4.029 9 9v117.12c0 4.97-4.029 9-9 9z" fill="#fff"/></g><g><path d="m383.335 327.659c-4.971 0-9-4.029-9-9v-117.12c0-4.971 4.029-9 9-9s9 4.029 9 9v117.12c0 4.97-4.029 9-9 9z" fill="#fff"/></g><path d="m184.478 89.417c7.653 5.202 3.768 17.241-5.486 17.241h-130.967c-8.83 0-16 7.16-16 16 0 12.108-19 13.501-19-.69v-19.31c0-8.84 7.17-16 16-16h146.47c3.328.001 6.421 1.018 8.983 2.759z" fill="#ff6d7a"/><path d="m443.248 89.417c7.653 5.202 3.768 17.241-5.486 17.241h-130.967c-8.83 0-16 7.16-16 16 0 12.108-19 13.501-19-.69v-19.31c0-8.84 7.17-16 16-16h146.47c3.328.001 6.421 1.018 8.983 2.759z" fill="#d0ffad"/><path d="m75.425 440.239h-34.5c-11.36 0-21.49-7.18-25.26-17.91-15.994-45.582-15.283-43.045-15.55-45.67-.304-2.782-2.079 11.571 30.89-224.9 1.1-7.91 7.86-13.79 15.84-13.79h2.19c9.72 0 17.19 8.59 15.85 18.21l-30.2 216.64c-.729 5.136-.19 4.849 15.48 49.51 3.77 10.73 13.9 17.91 25.26 17.91z" fill="#f1fafc"/><path d="m204.405 376.659c-.266 2.624.44.098-15.55 45.67-3.77 10.73-13.9 17.91-25.26 17.91h-122.67c-11.36 0-21.49-7.18-25.26-17.91-15.994-45.582-15.283-43.045-15.55-45.67z" fill="#42434d"/><path d="m175.175 163.619h-145.83l3.58-25.65h138.67z" fill="#bdeffc"/><g fill="#4d4e59"><path d="m40.925 440.239c-11.36 0-21.49-7.18-25.26-17.91-15.994-45.582-15.283-43.045-15.55-45.67h34.5c.12 1.18.37 2.35.75 3.49 16.035 45.701 15.006 42.998 16.02 45.1.01.01.02.02.01.03 2.679 6.687-1.443 14.96-10.47 14.96z"/><path d="m299.607 440.239c-11.36 0-21.49-7.18-25.26-17.91-15.994-45.582-15.283-43.045-15.55-45.67h34.5c.12 1.18.37 2.35.75 3.49 15.75 44.888 14.925 42.831 16.02 45.1.01.01.02.02.01.03 2.679 6.687-1.443 14.96-10.47 14.96z"/></g></svg>