<svg id="Layer_1" enable-background="new 0 0 464.001 464.001" height="512" viewBox="0 0 464.001 464.001" width="512" xmlns="http://www.w3.org/2000/svg"><path d="m452.841 53.621-56.05 46.1 21.39 21.39c12.5 12.5 12.5 32.76 0 45.26l-251.81 251.81c-12.5 12.5-32.76 12.5-45.26 0l-21.14-21.14-46.35 55.8c-11.269 13.88-32.103 14.997-44.78 2.32-12.66-12.66-11.58-33.5 2.32-44.78l57.55-44.6-22.89-22.89c-12.5-12.5-12.5-32.76 0-45.26l251.81-251.81c12.5-12.5 32.76-12.5 45.26 0l22.14 22.14 45.35-56.8c11.28-13.9 32.12-14.98 44.78-2.32 12.677 12.677 11.559 33.511-2.32 44.78z" fill="#ffe773"/><g><path d="m148.857 256.306c-3.515-3.515-3.515-9.214 0-12.729l107.63-107.631c3.515-3.514 9.213-3.514 12.728 0 3.515 3.515 3.515 9.214 0 12.729l-107.63 107.631c-3.516 3.514-9.213 3.513-12.728 0z" fill="#fff"/></g><g><path d="m285.907 119.254c-3.515-3.515-3.514-9.213 0-12.728l5.03-5.029c3.516-3.514 9.214-3.514 12.728.001 3.515 3.515 3.514 9.213 0 12.728l-5.03 5.029c-3.516 3.514-9.214 3.514-12.728-.001z" fill="#fff"/></g><g fill="#ffec8f"><path d="m430.181.212c-7.332.843-14.471 4.382-19.8 10.949l-45.35 56.8-22.14-22.14c-12.498-12.498-32.762-12.498-45.26 0-1.788 1.788-252.072 252.042-252.892 252.945-12.683 13.969 8.13 33.314 21.468 19.969 27.595-27.608 90.001-89.991 231.424-231.414 12.5-12.5 32.76-12.5 45.26 0l55.664 55.773c13.016 13.042 33.5-5.078 21.931-19.419-2.87-3.557-37.205-37.228-37.205-37.464 49.101-61.498 47.06-60.119 53.737-63.956 11.107-6.382 5.889-23.506-6.837-22.043z"/><path d="m89.461 386.531c-62.293 48.276-58.139 44.913-60.141 46.96-13.298 13.588-34.348-6.079-21.44-20.038 2.431-2.629-1.3.479 60.831-47.671z"/></g></svg>