<svg id="Layer_3" enable-background="new 0 0 64 64" height="512" viewBox="0 0 64 64" width="512" xmlns="http://www.w3.org/2000/svg"><g><path d="m12.121 52c-1.358 0-2.661-.54-3.621-1.5s-2.263-1.5-3.621-1.5h-2.45l.571 8h10l.357-5z" fill="#f4b2b0"/><path d="m53.657 49c-3.622 0-7.096-1.439-9.657-4s-6.035-4-9.657-4h-6.148c-.128.715-.195 1.45-.195 2.198v9.802c0 2.209 1.791 4 4 4h26c2.209 0 4-1.791 4-4v-4z" fill="#f4b2b0"/><g fill="#b3404a"><path d="m53 30.206v-.206h5c.553 0 1-.448 1-1v-9c0-7.72-6.28-14-14-14s-14 6.28-14 14v9c0 .552.447 1 1 1h5v.206c-5.753 1.524-9.864 6.725-9.988 12.716-3.392-.483-6.012-3.399-6.012-6.922v-1c0-4.962-4.037-9-9-9h-2c-.347 0-.668.18-.851.474-.183.295-.199.663-.044.973l.777 1.553-.776 1.553c-.155.31-.139.678.044.973.182.294.503.474.85.474h2c1.654 0 3 1.346 3 3v5c0 6.065 4.935 11 11 11h1v2c0 2.757 2.243 5 5 5h26c2.757 0 5-2.243 5-5v-9.802c0-6.107-4.158-11.445-10-12.992zm-20-2.206v-8c0-6.617 5.383-12 12-12s12 5.383 12 12v8h-4v-1c0-.225-.088-.422-.214-.59l.014-.01-.6-.8c-1.69-2.254-4.382-3.6-7.2-3.6s-5.51 1.346-7.2 3.601l-.6.8.013.01c-.125.167-.213.364-.213.589v1zm16.883-2h-9.766c1.297-1.262 3.052-2 4.883-2s3.586.738 4.883 2zm-23.883 23c-4.963 0-9-4.037-9-9v-5c0-2.757-2.243-5-5-5h-.382l.276-.553c.141-.282.141-.613 0-.895l-.276-.552h.382c3.859 0 7 3.14 7 7v1c0 4.625 3.507 8.442 8 8.941v4.059zm32 7h-26c-1.654 0-3-1.346-3-3v-9.802c0-.404.028-.803.07-1.198h5.273c3.381 0 6.56 1.316 8.95 3.707 2.769 2.769 6.449 4.293 10.364 4.293h7.343v3c0 1.654-1.346 3-3 3zm3-8h-7.343c-3.381 0-6.56-1.316-8.95-3.707-2.769-2.769-6.449-4.293-10.364-4.293h-4.876c1.174-4 4.484-7.17 8.729-8.02.467-.093.804-.503.804-.98v-3h12v3c0 .477.337.887.804.98 5.329 1.067 9.196 5.785 9.196 11.218z"/><path d="m48 19c0-1.654-1.346-3-3-3s-3 1.346-3 3 1.346 3 3 3 3-1.346 3-3zm-3 1c-.552 0-1-.449-1-1s.448-1 1-1 1 .449 1 1-.448 1-1 1z"/><path d="m53 44c0 1.654 1.346 3 3 3s3-1.346 3-3-1.346-3-3-3-3 1.346-3 3zm4 0c0 .552-.448 1-1 1s-1-.448-1-1 .448-1 1-1 1 .448 1 1z"/><path d="m49 34c-2.206 0-4 1.794-4 4s1.794 4 4 4 4-1.794 4-4-1.794-4-4-4zm0 6c-1.103 0-2-.897-2-2s.897-2 2-2 2 .897 2 2-.897 2-2 2z"/><path d="m13.997 57.071 1-14c.021-.277-.076-.55-.266-.753-.188-.203-.454-.318-.731-.318h-12c-.277 0-.543.115-.731.318-.189.203-.286.476-.266.753l1 14c.037.524.473.929.997.929h10c.524 0 .96-.405.997-.929zm-1.071-13.071-.5 7h-.305c-1.085 0-2.146-.44-2.914-1.207-1.156-1.156-2.693-1.793-4.328-1.793h-1.519l-.285-4zm-8.995 12-.428-6h1.376c1.085 0 2.146.44 2.914 1.207 1.156 1.156 2.693 1.793 4.328 1.793h.162l-.214 3z"/><path d="m3 34v4h2v-4c0-1.103-.897-2-2-2v-4h-2v4c0 1.103.897 2 2 2z"/><path d="m6 30v4c0 1.103.897 2 2 2v4h2v-4c0-1.103-.897-2-2-2v-4z"/></g></g></svg>