<svg id="Capa_1" enable-background="new 0 0 512 512" height="512" viewBox="0 0 512 512" width="512" xmlns="http://www.w3.org/2000/svg" xmlns:xlink="http://www.w3.org/1999/xlink"><linearGradient id="lg1"><stop offset="0" stop-color="#a93aff"/><stop offset="1" stop-color="#ff81ff"/></linearGradient><linearGradient id="SVGID_1_" gradientUnits="userSpaceOnUse" x1="256" x2="256" xlink:href="#lg1" y1="121" y2="31"/><linearGradient id="lg2"><stop offset="0" stop-color="#ffbef9"/><stop offset="1" stop-color="#fff1ff"/></linearGradient><linearGradient id="SVGID_2_" gradientUnits="userSpaceOnUse" x1="45.5" x2="45.5" xlink:href="#lg2" y1="316" y2="211"/><linearGradient id="SVGID_3_" gradientUnits="userSpaceOnUse" x1="466.5" x2="466.5" xlink:href="#lg2" y1="315.883" y2="211"/><linearGradient id="SVGID_4_" gradientUnits="userSpaceOnUse" x1="256" x2="256" xlink:href="#lg1" y1="481" y2="166"/><linearGradient id="SVGID_5_" gradientUnits="userSpaceOnUse" x1="256" x2="256" xlink:href="#lg2" y1="196" y2="91"/><g><path d="m286 31h-60c-8.291 0-15 6.709-15 15s6.709 15 15 15h15v45c0 8.291 6.709 15 15 15s15-6.709 15-15v-45h15c8.291 0 15-6.709 15-15s-6.709-15-15-15z" fill="url(#SVGID_1_)"/><g id="Cooking_Pot_3_"><g><g><path d="m76 316c-5.596 0-10.84-3.12-13.418-8.291-.381-.703-13.1-21.709-47.582-21.709-8.291 0-15-6.709-15-15v-45c0-8.291 6.709-15 15-15h61c8.291 0 15 6.709 15 15v75c0 6.958-4.775 13.008-11.543 14.604-1.172.264-2.314.396-3.457.396z" fill="url(#SVGID_2_)"/></g></g><g><g><g><path d="m436 315.883c-1.201 0-2.402-.146-3.604-.439-6.679-1.685-11.396-7.574-11.396-14.444v-75c0-8.291 6.709-15 15-15h61c8.291 0 15 6.709 15 15v45c0 8.291-6.709 15-15 15-34.482 0-47.201 21.006-47.67 21.899-2.695 4.966-7.881 7.984-13.33 7.984z" fill="url(#SVGID_3_)"/></g></g></g><g><g><path d="m451 196v180c0 57.9-47.102 105-105 105h-180c-57.898 0-105-47.1-105-105v-180l198.511-30z" fill="url(#SVGID_4_)"/></g></g></g><path d="m256 91c-192.898 0-195 100.8-195 105h390c0-4.2-2.102-105-195-105z" fill="url(#SVGID_5_)"/></g></svg>