<svg id="Layer_1" enable-background="new 0 0 473 473" height="512" viewBox="0 0 473 473" width="512" xmlns="http://www.w3.org/2000/svg"><path d="m354.942 80v347c0 25.41-20.59 46-46 46h-168c-25.41 0-46-20.59-46-46v-184l-40.84-108.36c-3.95-10.46 3.79-21.64 14.97-21.64h25.87v-33c0-17.67 14.33-32 32-32h196c17.67 0 32 14.33 32 32z" fill="#d6f4fc"/><g><path d="m410.942 296c-4.971 0-9-4.029-9-9v-144c0-11.58-9.421-21-21-21h-36c-4.971 0-9-4.029-9-9s4.029-9 9-9h36c21.505 0 39 17.495 39 39v144c0 4.971-4.029 9-9 9z" fill="#2c2c33"/></g><path d="m354.942 113v19.012c0 12.696-10.292 22.988-22.988 22.988h-159.012c-17.673 0-32 14.327-32 32v241.214c0 29.385-43.912 31.254-45.894 1.936-.158-2.334-.106 9.709-.106-187.15l-40.84-108.36c-3.95-10.46 3.79-21.64 14.97-21.64z" fill="#f1fafc"/><path d="m224.942 104c-4.971 0-9 4.029-9 9v147c0 4.971 4.029 9 9 9s9-4.029 9-9v-147c0-4.971-4.029-9-9-9z" fill="#bdeffc"/><path d="m256.942 0h-64c-4.971 0-9 4.029-9 9s4.029 9 9 9h23v30c0 4.971 4.029 9 9 9s9-4.029 9-9v-30h23c4.971 0 9-4.029 9-9s-4.029-9-9-9z" fill="#f1fafc"/><path d="m94.942 248h260v54h-260z" fill="#42434d"/><path d="m354.942 80v33c-11.41 0-248.59 0-260 0v-33c0-17.67 14.33-32 32-32h196c17.67 0 32 14.33 32 32z" fill="#befa91"/><path d="m323.485 76.235c-26.272-.005-75.492.015-168.284.015-17.673 0-32.008 14.327-32.008 32v4.75h-28.25v-33c0-17.673 14.327-32 32-32 1.25 0 196.341-.02 197.535.036 18.15.858 17.177 28.203-.993 28.199z" fill="#d0ffad"/><path d="m94.942 248h46v54h-46z" fill="#4d4e59"/></svg>