<svg id="Capa_1" enable-background="new 0 0 497 497" height="512" viewBox="0 0 497 497" width="512" xmlns="http://www.w3.org/2000/svg"><g><path d="m274.548 69.913h-52.096c-18.161 0-30.864 17.96-24.815 35.084l9.359 26.493h83.008l9.359-26.493c6.049-17.124-6.654-35.084-24.815-35.084z" fill="#c7c5cb"/><path d="m252.452 69.913h-30c-18.161 0-30.865 17.96-24.815 35.084l9.359 26.493h30l-9.359-26.493c-6.049-17.124 6.654-35.084 24.815-35.084z" fill="#b2b0bc"/><path d="m475.088 209.477h-67.391v48.347h67.391c12.102 0 21.912-9.81 21.912-21.912v-4.523c0-12.101-9.81-21.912-21.912-21.912z" fill="#b2b0bc"/><path d="m21.912 209.477h67.391v48.347h-67.391c-12.102 0-21.912-9.81-21.912-21.912v-4.523c0-12.101 9.81-21.912 21.912-21.912z" fill="#c7c5cb"/><path d="m69.488 187.909s-28.785 29.82-36.266 109.449c-2.206 23.482 2.602 47.098 13.868 67.819 20.745 38.155 60.697 61.909 104.127 61.909h194.568c43.43 0 83.382-23.754 104.127-61.909 11.266-20.721 16.074-44.337 13.868-67.819-7.481-79.629-36.266-109.449-36.266-109.449l-179.014-33.831z" fill="#c7c5cb"/><path d="m69.488 187.909s-28.785 29.82-36.266 109.449c-2.206 23.482 2.602 47.099 13.868 67.819 20.745 38.155 60.697 61.909 104.127 61.909h30c-43.43 0-83.382-23.754-104.127-61.909-11.266-20.721-16.074-44.337-13.868-67.819 7.481-79.629 36.266-109.449 36.266-109.449z" fill="#b2b0bc"/><path d="m372.391 120.247h-247.782c-30.443 0-55.121 24.679-55.121 55.121v12.541h358.025v-12.541c-.001-30.443-24.679-55.121-55.122-55.121z" fill="#6a647f"/><path d="m154.609 120.247h-30c-30.443 0-55.121 24.678-55.121 55.121v12.541h30v-12.541c0-30.443 24.678-55.121 55.121-55.121z" fill="#4f4c5f"/><g><g fill="#ff82b3"><ellipse cx="139.252" cy="315.041" rx="40.311" ry="32.101"/><ellipse cx="357.749" cy="315.041" rx="40.311" ry="32.101"/></g><g><path d="m162.744 291.639c-4.142 0-7.5-3.358-7.5-7.5v-16.479c0-4.142 3.358-7.5 7.5-7.5s7.5 3.358 7.5 7.5v16.479c0 4.142-3.358 7.5-7.5 7.5z" fill="#423e4f"/></g><g><path d="m334.256 291.639c-4.143 0-7.5-3.358-7.5-7.5v-16.479c0-4.142 3.357-7.5 7.5-7.5s7.5 3.358 7.5 7.5v16.479c0 4.142-3.358 7.5-7.5 7.5z" fill="#423e4f"/></g><g><path d="m248.5 301.449c-10.833 0-21.134-4.692-28.263-12.873-2.721-3.123-2.396-7.86.727-10.582 3.122-2.721 7.86-2.396 10.582.727 4.279 4.911 10.459 7.727 16.955 7.727 6.495 0 12.675-2.817 16.955-7.728 2.723-3.123 7.459-3.448 10.582-.726 3.123 2.721 3.447 7.459.727 10.582-7.132 8.181-17.433 12.873-28.265 12.873z" fill="#423e4f"/></g></g></g></svg>