<svg id="Capa_1" enable-background="new 0 0 501.585 501.585" height="512" viewBox="0 0 501.585 501.585" width="512" xmlns="http://www.w3.org/2000/svg"><g><g><path d="m154.692 346.893-10.606-10.607 136.207-136.207 10.606 10.607-57.113 71.255z" fill="#c8beb9"/></g><g><path d="m131.786 276.592h192.626v15h-192.626z" fill="#9b9696" transform="matrix(.707 -.707 .707 .707 -134.075 244.499)"/></g><path d="m425.831 75.754 19.557-5.414 1.657-15.799-41.36-41.36c-8.796-8.796-20.487-13.472-32.923-13.167-12.435.305-23.885 5.55-32.239 14.766l-96.627 106.604c-16.136 17.801-15.467 45.053 1.522 62.042l36.371 36.371 17.678-3.536 3.536-17.678-10.607-10.607 122.828-122.829zm-154.649 91.009-4.551-4.551c-5.663-5.663-5.885-14.746-.507-20.68l96.627-106.604c2.784-3.073 6.602-4.821 10.747-4.923s8.042 1.457 10.974 4.389l9.54 9.54z" fill="#ebe1dc"/><g><path d="m139.801 312.465-82.201 82.201-3.535 17.678-17.678 3.536-36.387 36.387 24.659 24.659 82.741-68.599 57.06-71.202z" fill="#ffe89c"/><path d="m189.119 361.784-24.659-24.659-139.801 139.801 24.659 24.659 36.387-36.387 3.536-17.678 17.677-3.535z" fill="#fad17f"/></g><path d="m501.571 128.823c.305-12.436-4.371-24.127-13.167-32.923l-41.36-41.36-21.213 21.213 10.607 10.607-122.83 122.83-10.607-10.607-21.213 21.213 36.371 36.371c16.989 16.989 44.24 17.658 62.042 1.522l106.604-96.627c9.216-8.354 14.461-19.803 14.766-32.239zm-141.518 106.638c-5.934 5.379-15.017 5.156-20.68-.507l-4.551-4.551 122.829-122.829 9.54 9.54c2.932 2.932 4.491 6.829 4.389 10.974s-1.85 7.963-4.923 10.747z" fill="#c8beb9"/><path d="m82.259 419.326-24.659-24.659-21.213 21.213 24.659 24.659 17.678-3.536z" fill="#fad17f"/><path d="m68.982 424.825h30v34.873h-30z" fill="#ffb655" transform="matrix(.707 -.707 .707 .707 -288.128 188.92)"/></g></svg>