<svg id="Layer_1" enable-background="new 0 0 468.038 468.038" height="512" viewBox="0 0 468.038 468.038" width="512" xmlns="http://www.w3.org/2000/svg"><path d="m384.965 156.038v232c0 8.84-7.16 16-16 16h-264c-17.68 0-32-14.33-32-32v-24l-45.97-74.2c-20.608-33.273 7.759-75.05 45.97-68.89v-48.91c0-86.157 69.837-156 156-156 86.15 0 156 69.84 156 156z" fill="#fe4f60"/><path d="m384.965 388.038c0 8.837-7.163 16-16 16h-264c-17.68 0-32-14.33-32-32v-24h312z" fill="#42434d"/><g><path d="m365.965 427.038v-32c0-4.971 4.029-9 9-9h32c36.714 0 54.547 44.441 28.994 69.994-25.619 25.619-69.994 7.571-69.994-28.994zm18-23v23c0 12.683 10.317 23 23 23 12.718 0 23-10.281 23-23 0-12.718-10.281-23-23-23z" fill="#2c2c33"/></g><path d="m108.856 393.776c4.041 3.588 1.512 10.263-3.892 10.263-17.68 0-32-14.33-32-32v-24h26.11v24c.001 9.105 3.716 16.351 9.782 21.737z" fill="#4d4e59"/><path d="m99.075 348.038h-26.11l-45.97-74.2c-13.26-21.41-6.61-49.52 14.84-62.72 14.479-8.913 28.92 8.266 19.449 20.983-10.543 14.156-12.857 34.174-2.289 51.237z" fill="#ff6d7a"/><path d="m259.508 3.072c17.477 3.474 14.904 29.109-2.915 28.971-84.769-.654-154.084 66.32-157.129 150.245-.133 3.642-.1 3.094-.1 36.96-7.06-7.78-16.44-12.68-26.4-14.3v-48.91c.001-97.615 89.117-172.331 186.544-152.966z" fill="#ff6d7a"/><path d="m146.149 262.854c-6.193 6.193-16.556 4.927-21.076-2.576l-20.409-33.88c-7.18-11.94-18.97-19.38-31.7-21.45v-30.5c25.65 2.69 48.43 18.27 60.13 41.67 10.234 20.481 13.709 27.434 15.584 31.187 2.593 5.189 1.572 11.448-2.529 15.549z" fill="#e84857"/></svg>