<?xml version="1.0"?>
<svg xmlns="http://www.w3.org/2000/svg" viewBox="0 0 64 64" width="512" height="512"><g id="Fill_Outline" data-name="Fill Outline"><g id="Color"><g><circle cx="23" cy="41" r="20" style="fill:#e9f1f2"/><g><path d="M41,44a1.99,1.99,0,0,0-1.383.56,2.983,2.983,0,0,0-4.293-1.048A1.982,1.982,0,0,0,34,43a1.739,1.739,0,0,0-.192.027A2.92,2.92,0,0,0,33.221,40a2.979,2.979,0,0,0-3.194-4.825,2.915,2.915,0,0,0,.557-3.675,2.85,2.85,0,0,0,.255-2.427,2.991,2.991,0,0,0,4.712-3.634A20.146,20.146,0,0,0,33.6,24.06,3.007,3.007,0,0,0,33,24a3.107,3.107,0,0,0-.032-.322,19.816,19.816,0,0,0-4.854-1.993A2.978,2.978,0,0,0,27,24a2.822,2.822,0,0,0,.03.293,1.968,1.968,0,0,0-2.53.4,1.994,1.994,0,1,0-2.157,3.19,1.993,1.993,0,0,0,.217,2.5A2.991,2.991,0,0,0,24,36a2.978,2.978,0,0,0,.779,2,2.98,2.98,0,0,0,1.544,4.916,2,2,0,1,0,3.523,1.852c.039.017.082.023.121.038a2.99,2.99,0,1,0,4.288,4.153,1.985,1.985,0,0,0,3.531-.076,3.022,3.022,0,0,0,1.838-1.437,1.991,1.991,0,0,0,2.148.4,19.708,19.708,0,0,0,.851-3.006A2,2,0,0,0,41,44Z" style="fill:#d0d8da"/><path d="M30,53A19.965,19.965,0,0,1,12.014,24.3,19.992,19.992,0,1,0,40.986,49.7,19.9,19.9,0,0,1,30,53Z" style="fill:#d0d8da"/></g><circle cx="23" cy="41" r="14" style="fill:#d0d8da"/><g><path d="M32,49a2.979,2.979,0,0,0,2.255-1.041,2.133,2.133,0,0,0,.127.173,13.9,13.9,0,0,0,2.457-6.12,2.984,2.984,0,0,0-1.515.5A1.982,1.982,0,0,0,34,42a1.739,1.739,0,0,0-.192.027A2.92,2.92,0,0,0,33.221,39a2.979,2.979,0,0,0-3.194-4.825,2.915,2.915,0,0,0,.557-3.675A2.968,2.968,0,0,0,31,29a2.633,2.633,0,0,0-.057-.522A13.922,13.922,0,0,0,23,26a14.074,14.074,0,0,0-1.652.106,2,2,0,0,0,1,.774,1.993,1.993,0,0,0,.217,2.5A2.991,2.991,0,0,0,24,35a2.978,2.978,0,0,0,.779,2,2.98,2.98,0,0,0,1.544,4.916,2,2,0,1,0,3.523,1.852c.039.017.082.023.121.038A2.992,2.992,0,0,0,32,49Z" style="fill:#93999a"/><path d="M30,53A19.993,19.993,0,0,1,10.161,35.424,13.984,13.984,0,0,0,30.2,52.99C30.133,52.991,30.068,53,30,53Z" style="fill:#93999a"/></g><path d="M42,21c-.065,0-.125.017-.19.019A2.969,2.969,0,0,0,42,20a3,3,0,0,0-6,0,5,5,0,0,0,0,10,4.946,4.946,0,0,0,2.345-.609A4.994,4.994,0,1,0,42,21Z" style="fill:#4891d3"/><g><path d="M24,53h0a4.714,4.714,0,0,0-4-4h0a4.714,4.714,0,0,0,4-4h0a4.714,4.714,0,0,0,4,4h0a4.714,4.714,0,0,0-4,4Z" style="fill:#84d2f4"/><path d="M23.588,47.058,24,45a4.714,4.714,0,0,1-4,4,4.714,4.714,0,0,1,4,4,4.714,4.714,0,0,1,4-4l-2.058.412A2,2,0,0,1,23.588,47.058Z" style="fill:#57b7eb"/></g><g><path d="M9,59H9a4.714,4.714,0,0,0-4-4H5a4.714,4.714,0,0,0,4-4H9a4.714,4.714,0,0,0,4,4h0a4.714,4.714,0,0,0-4,4Z" style="fill:#84d2f4"/><path d="M8.588,53.058,9,51a4.714,4.714,0,0,1-4,4,4.714,4.714,0,0,1,4,4,4.714,4.714,0,0,1,4-4l-2.058.412A2,2,0,0,1,8.588,53.058Z" style="fill:#57b7eb"/></g><g><path d="M9,30H9a4.714,4.714,0,0,0-4-4H5a4.714,4.714,0,0,0,4-4H9a4.714,4.714,0,0,0,4,4h0a4.714,4.714,0,0,0-4,4Z" style="fill:#84d2f4"/><path d="M8.588,24.058,9,22a4.714,4.714,0,0,1-4,4,4.714,4.714,0,0,1,4,4,4.714,4.714,0,0,1,4-4l-2.058.412A2,2,0,0,1,8.588,24.058Z" style="fill:#57b7eb"/></g><path d="M37,25a3,3,0,0,0-3-3,3,3,0,0,0-6,0,2.822,2.822,0,0,0,.03.293,1.968,1.968,0,0,0-2.53.4,1.994,1.994,0,1,0-2.157,3.19,1.993,1.993,0,0,0,.217,2.5A2.991,2.991,0,0,0,25,34a2.978,2.978,0,0,0,.779,2,2.98,2.98,0,0,0,1.544,4.916,2,2,0,1,0,3.523,1.852A2.991,2.991,0,0,0,34.221,38a2.979,2.979,0,0,0-3.194-4.825,2.915,2.915,0,0,0,.557-3.675,2.85,2.85,0,0,0,.255-2.427A2.995,2.995,0,0,0,37,25Z" style="fill:#84d2f4"/><path d="M36.242,26.976c-.082.005-.159.024-.242.024a4,4,0,0,1-3.648-2.374A4.064,4.064,0,0,1,30.9,23.5,3.953,3.953,0,0,1,29,24c-.116,0-.225-.024-.338-.034a3.962,3.962,0,0,1-6.231-1.193,1.979,1.979,0,0,0,.912,3.107,1.993,1.993,0,0,0,.217,2.5A2.991,2.991,0,0,0,25,34a2.978,2.978,0,0,0,.779,2,2.98,2.98,0,0,0,1.544,4.916,2,2,0,1,0,3.523,1.852A2.991,2.991,0,0,0,34.221,38a2.979,2.979,0,0,0-3.194-4.825,2.915,2.915,0,0,0,.557-3.675,2.85,2.85,0,0,0,.255-2.427,2.974,2.974,0,0,0,4.4-.1Z" style="fill:#57b7eb"/><g><path d="M49.828,26a11.5,11.5,0,0,0-7.562-6.433,2.281,2.281,0,0,0-2.639,1.126,2.2,2.2,0,0,0,1.157,3.021l1.792.716A2.986,2.986,0,0,1,44.186,26H32.107a2.075,2.075,0,0,0-2.08,1.664A2,2,0,0,0,32,30H29.107a2.075,2.075,0,0,0-2.08,1.664A2,2,0,0,0,29,34h3a2,2,0,0,0-1.973,2.336A2.075,2.075,0,0,0,32.107,38H35a2,2,0,0,0-1.973,2.336A2.075,2.075,0,0,0,35.107,42H45.5A7.5,7.5,0,0,0,50,40.5h0A7.5,7.5,0,0,1,54.5,39H61V26Z" style="fill:#f9e109"/><path d="M50,34a11.994,11.994,0,0,1-11.3-8h-6.59a2.075,2.075,0,0,0-2.08,1.664A2,2,0,0,0,32,30H29.107a2.075,2.075,0,0,0-2.08,1.664A2,2,0,0,0,29,34h3a2,2,0,0,0-1.973,2.336A2.075,2.075,0,0,0,32.107,38H35a2,2,0,0,0-1.973,2.336A2.075,2.075,0,0,0,35.107,42H45.5A7.5,7.5,0,0,0,50,40.5,7.5,7.5,0,0,1,54.5,39H61V34Z" style="fill:#fcbc04"/></g><path d="M38,32H30a1.993,1.993,0,0,1-1.973-1.737A1.993,1.993,0,0,0,29,34H40A2,2,0,0,0,38,32Z" style="fill:#e59730"/><path d="M38,28H33a1.993,1.993,0,0,1-1.973-1.737A1.993,1.993,0,0,0,32,30h8A2,2,0,0,0,38,28Z" style="fill:#e59730"/><path d="M39,36H33a1.993,1.993,0,0,1-1.973-1.737A1.993,1.993,0,0,0,32,38h9A2,2,0,0,0,39,36Z" style="fill:#e59730"/><path d="M39,40H36a1.993,1.993,0,0,1-1.973-1.737A1.993,1.993,0,0,0,35,42h6A2,2,0,0,0,39,40Z" style="fill:#e59730"/><path d="M42,42a1.99,1.99,0,0,0-1.383.56,2.983,2.983,0,0,0-4.293-1.048,1.977,1.977,0,0,0-3.061.515C33.175,42.019,33.09,42,33,42a3,3,0,1,0,2.255,4.959,1.985,1.985,0,0,0,3.531-.076,3.022,3.022,0,0,0,1.838-1.437A2,2,0,1,0,42,42Z" style="fill:#84d2f4"/><path d="M41.156,43.81a3.612,3.612,0,0,1-2.312,0,3.982,3.982,0,0,1-6.663-1.682,2.991,2.991,0,1,0,3.074,4.831,1.985,1.985,0,0,0,3.531-.076,3.022,3.022,0,0,0,1.838-1.437,1.984,1.984,0,0,0,3.113-.473A3.986,3.986,0,0,1,41.156,43.81Z" style="fill:#57b7eb"/><path d="M53.236,46.439a2.985,2.985,0,0,0-2.46-5.341,1.995,1.995,0,1,0-2.269,2.833c0,.024-.007.046-.007.069a2.994,2.994,0,0,0,1.917,2.79,2,2,0,1,0,2.819-.351Z" style="fill:#84d2f4"/><path d="M48,53a2,2,0,0,1-4,0c0-1.1.9-3,2-3S48,51.9,48,53Z" style="fill:#84d2f4"/><path d="M40.784,23.714l1.792.716A2.986,2.986,0,0,1,44.186,26h.034a1.993,1.993,0,0,0,1.964-1.959V24a2.986,2.986,0,0,0-1.61-1.57l-1.792-.716a2.2,2.2,0,0,1-1.37-2.209,2.181,2.181,0,0,0-.63,4.209Z" style="fill:#fcbc04"/><path d="M52,47a1.982,1.982,0,0,1,.417-1.21A2.994,2.994,0,0,1,50.5,43c0-.023.006-.045.007-.069a1.976,1.976,0,0,1-1.25-2.894A1.808,1.808,0,0,0,49,40a2,2,0,0,0-.493,3.931c0,.024-.007.046-.007.069a2.994,2.994,0,0,0,1.917,2.79,1.992,1.992,0,1,0,3.32,2.183A1.993,1.993,0,0,1,52,47Z" style="fill:#57b7eb"/><path d="M47,53a2,2,0,0,1-2-2,2.782,2.782,0,0,1,.059-.521A4.074,4.074,0,0,0,44,53a2,2,0,0,0,4,0c0-.082-.015-.175-.024-.264A1.984,1.984,0,0,1,47,53Z" style="fill:#57b7eb"/></g></g><g id="Outline_copy" data-name="Outline copy"><g><path d="M41.5,48.609a1,1,0,0,0-1.33.479,18.956,18.956,0,0,1-28.268,7.32,3.667,3.667,0,0,1,1.236-.418,1,1,0,0,0,0-1.98A3.734,3.734,0,0,1,9.99,50.858a1,1,0,0,0-1.98,0A3.651,3.651,0,0,1,7.592,52.1a18.89,18.89,0,0,1,.283-22.544,3.623,3.623,0,0,1,.135.591,1,1,0,0,0,1.98,0,3.734,3.734,0,0,1,3.151-3.152,1,1,0,0,0,0-1.98c-.089-.013-.173-.041-.26-.06a19.01,19.01,0,0,1,6.6-2.622,1,1,0,0,0-.371-1.965,21.068,21.068,0,0,0-8.169,3.476,3.693,3.693,0,0,1-.954-1.981,1,1,0,0,0-1.98,0A3.734,3.734,0,0,1,4.859,25.01a1,1,0,0,0,0,1.98,3.682,3.682,0,0,1,1.841.835A20.857,20.857,0,0,0,6.18,53.54a3.662,3.662,0,0,1-1.321.47,1,1,0,0,0,0,1.98A3.734,3.734,0,0,1,8.01,59.142a1,1,0,0,0,1.98,0,3.667,3.667,0,0,1,.47-1.322,20.943,20.943,0,0,0,31.521-7.881A1,1,0,0,0,41.5,48.609ZM9,24.62A5.792,5.792,0,0,0,10.379,26,5.792,5.792,0,0,0,9,27.38,5.792,5.792,0,0,0,7.621,26,5.792,5.792,0,0,0,9,24.62ZM7.621,55A5.792,5.792,0,0,0,9,53.62,5.792,5.792,0,0,0,10.379,55a5.824,5.824,0,0,0-.842.743c-.014.015-.033.021-.046.037s-.015.033-.026.048A5.826,5.826,0,0,0,9,56.38,5.792,5.792,0,0,0,7.621,55Z" style="fill:#464a51"/><path d="M8.169,38.858a1,1,0,0,0,1.98.284A13.046,13.046,0,0,1,22.2,28.039c.012.032.017.066.03.1A3.986,3.986,0,0,0,24.1,34.9a4.03,4.03,0,0,0,.441,1.1,3.977,3.977,0,0,0,1.5,5.486A2.941,2.941,0,0,0,26,42a3,3,0,0,0,3,3,4,4,0,0,0,4,4c.078,0,.155-.012.232-.017A12.882,12.882,0,0,1,24.38,53.92a1,1,0,0,0,.61-.778,3.734,3.734,0,0,1,3.151-3.152,1,1,0,0,0,0-1.98,3.734,3.734,0,0,1-3.151-3.152,1,1,0,0,0-1.98,0,3.734,3.734,0,0,1-3.151,3.152,1,1,0,0,0,0,1.98,3.734,3.734,0,0,1,3.151,3.152.99.99,0,0,0,.834.829c-.28.018-.561.029-.844.029A13.048,13.048,0,0,1,10.149,42.858a1,1,0,0,0-1.98.284A15.059,15.059,0,0,0,23,56a14.9,14.9,0,0,0,12.82-7.257A2.941,2.941,0,0,0,37,49a2.973,2.973,0,0,0,2.454-1.286,4.029,4.029,0,0,0,1.412-.938A2.97,2.97,0,0,0,42,47a3,3,0,0,0,0-6,2.967,2.967,0,0,0-1.137.225,4.081,4.081,0,0,0-4.484-.883,3.013,3.013,0,0,0-2.359-.152l-.005-.014A1,1,0,0,1,35,39h5a1,1,0,0,0,0-2H32.107a1.086,1.086,0,0,1-1.093-.824A1,1,0,0,1,32,35h8a1,1,0,0,0,0-2H29a1,1,0,0,1-.986-1.175A1.085,1.085,0,0,1,29.107,31H40a1,1,0,0,0,0-2H32a1,1,0,0,1-.986-1.175A1.085,1.085,0,0,1,32.107,27h12.08a1,1,0,0,0,.913-1.408,3.978,3.978,0,0,0-2.153-2.09l-1.792-.717a1.2,1.2,0,0,1-.628-1.656,1.287,1.287,0,0,1,1.486-.6,10.461,10.461,0,0,1,6.9,5.875,1,1,0,0,0,.912.591H61a1,1,0,0,0,0-2H50.457a12.43,12.43,0,0,0-7.692-6.322,3.994,3.994,0,0,0-7.656.392,5.89,5.89,0,0,0-1.1.3,3.995,3.995,0,0,0-6.553.782,1,1,0,1,0,1.772.926,1.992,1.992,0,0,1,3.534-.008c0,.006,0,.013.006.02s.013.016.019.026A1.972,1.972,0,0,1,33,22a1,1,0,0,0,1,1,2,2,0,0,1,2,2H32.107a3.082,3.082,0,0,0-3.066,2.5,3.027,3.027,0,0,0,.131,1.5h-.065a3.082,3.082,0,0,0-3.066,2.5A3,3,0,0,0,29,35h.172a3.03,3.03,0,0,0-.131,1.5A3.082,3.082,0,0,0,32.107,39h.065a3.03,3.03,0,0,0-.131,1.5,2.744,2.744,0,0,0,.184.594A3.993,3.993,0,0,0,29.552,43H29a1,1,0,0,1-1-1,.983.983,0,0,1,.163-.541,1,1,0,0,0-.615-1.518,1.981,1.981,0,0,1-1.027-3.272,1,1,0,0,0,0-1.338A1.993,1.993,0,0,1,26,34a1,1,0,0,0-1-1,1.99,1.99,0,0,1-.957-3.74,1,1,0,0,0,.239-1.569.993.993,0,0,1-.111-1.25,1,1,0,0,0-.5-1.5,1,1,0,1,1,1.074-1.59,1,1,0,1,0,1.5-1.317,2.985,2.985,0,1,0-4.406,4.023A15.062,15.062,0,0,0,8.169,38.858ZM22.621,49A5.792,5.792,0,0,0,24,47.62,5.792,5.792,0,0,0,25.379,49,5.792,5.792,0,0,0,24,50.38,5.792,5.792,0,0,0,22.621,49ZM35.01,21.138A3.73,3.73,0,0,1,36,21a1,1,0,0,0,1-1,2,2,0,0,1,2-2,1.978,1.978,0,0,1,1.508.7,3.114,3.114,0,0,0-1.781,1.563,3.2,3.2,0,0,0,1.686,4.385l.894.357H38A4,4,0,0,0,35.01,21.138ZM33.021,43.006h.011l.142.016a.988.988,0,0,0,.96-.5.977.977,0,0,1,1.525-.258,1,1,0,0,0,1.225.082,2.042,2.042,0,0,1,2.856.7,1,1,0,0,0,1.569.238,1,1,0,1,1,.005,1.44,1,1,0,0,0-1.563.236,2.025,2.025,0,0,1-1.228.96,1,1,0,0,0-.632.52,1.023,1.023,0,0,1-1.761.038.994.994,0,0,0-.77-.511.924.924,0,0,0-.1-.006,1,1,0,0,0-.755.344A1.966,1.966,0,0,1,33,47a2,2,0,1,1,.021-3.994Z" style="fill:#464a51"/><path d="M61,38H54.5a8.406,8.406,0,0,0-4.347,1.239A2.969,2.969,0,0,0,49,39a3,3,0,0,0-1.453,5.618A3.959,3.959,0,0,0,49.109,47.2,2.954,2.954,0,0,0,49,48a3,3,0,0,0,3,3,1,1,0,0,0,0-2,.992.992,0,0,1-.789-1.6,1,1,0,0,0-.433-1.54A1.983,1.983,0,0,1,49.5,44.044c0-.026.005-.053.006-.07a1,1,0,0,0-.752-1.011,1,1,0,1,1,1.13-1.411,1,1,0,0,0,1.131.516,1.992,1.992,0,0,1,1.64,3.558,1,1,0,0,0,1.162,1.627,3.979,3.979,0,0,0-1-7.013A6.2,6.2,0,0,1,54.5,40H61a1,1,0,0,0,0-2Z" style="fill:#464a51"/><path d="M13,41a9.932,9.932,0,0,0,2.929,7.071,1,1,0,0,0,1.414-1.414A7.948,7.948,0,0,1,15,41a1,1,0,0,0-2,0Z" style="fill:#464a51"/><circle cx="15" cy="37" r="1" style="fill:#464a51"/><path d="M20,38a1,1,0,0,0-1,1v.5h-.5a1,1,0,0,0,0,2H19V42a1,1,0,0,0,2,0v-.5h.5a1,1,0,0,0,0-2H21V39A1,1,0,0,0,20,38Z" style="fill:#464a51"/><path d="M15.5,16.5H16V17a1,1,0,0,0,2,0v-.5h.5a1,1,0,0,0,0-2H18V14a1,1,0,0,0-2,0v.5h-.5a1,1,0,0,0,0,2Z" style="fill:#464a51"/><path d="M46,49c-1.8,0-3,2.407-3,4a3,3,0,0,0,6,0C49,51.407,47.8,49,46,49Zm0,5a1,1,0,0,1-1-1c0-.82.68-1.956,1-2,.323.044,1,1.18,1,2A1,1,0,0,1,46,54Z" style="fill:#464a51"/></g></g></g></svg>
