<?xml version="1.0"?><svg width="640" height="480" xmlns="http://www.w3.org/2000/svg">
 <metadata id="metadata5143">image/svg+xml</metadata>
 <defs>
  <clipPath id="clipPath5153" clipPathUnits="userSpaceOnUse">
   <path id="path5155" d="m0,0l571,0l0,375.972992l-571,0l0,-375.972992z"/>
  </clipPath>
 </defs>
 <g>
  <title>Layer 1</title>
  <g id="g5145">
   <g id="g5147">
    <g id="g5149">
     <g clip-path="url(#clipPath5153)" id="g5151">
      <path fill="#231f20" fill-rule="evenodd" id="path5157" d="m251.457001,268.311188c27.382416,-3.752686 123.047668,99.366028 122.834442,-7.776978c-18.32431,62.735168 -106.503052,-11.955704 -122.834442,7.776978m-90.103653,-7.776978c-4.806992,-7.478531 -22.032928,1.623077 -14.19545,10.624084c6.053452,6.053101 19.226471,-2.796906 14.19545,-10.624084m297.745499,-2.763367c41.230438,48.495941 64.834259,-47.366119 83.846893,-44.488403c-24.872986,-18.582443 -45.378235,58.432495 -83.846893,44.488403m-96.927856,-48.258102c-1.96109,-7.202927 -7.827423,-12.320511 -13.939728,-13.330093c-8.765839,-1.448334 -16.111389,1.767685 -19.717804,6.589905c-7.391724,9.862579 2.613312,22.129883 11.696564,22.143585c8.66095,0.012909 13.242065,-9.175766 6.955139,-11.858612c1.026642,3.340469 -3.810394,8.176498 -8.761719,4.739014c-7.443695,-7.321411 3.511505,-16.207855 12.274109,-12.518829c7.237213,3.04512 9.122681,19.823059 15.212341,16.382156c-5.38443,-4.721878 -2.501617,-7.689728 -3.718903,-12.147125m-166.113266,18.079437c-27.443695,26.627304 -12.191895,61.041519 0,68.218124c8.506516,5.013611 29.841171,8.253174 38.301529,-8.3302c10.654724,-20.909485 -7.128952,-43.787415 -23.09259,-21.982605c14.80603,-2.324005 20.217377,4.396484 14.80603,15.023956c-6.587418,9.90979 -24.037033,6.569672 -28.712921,-3.846649c-4.534927,-10.104187 -2.990265,-20.563965 11.700729,-32.982117c41.560471,-31.322815 184.210892,90.44223 161.568253,-16.496323c-5.935944,68.191452 -119.971771,-46.285797 -174.57103,0.395813m-50.91333,-29.652161c-37.252167,28.478577 -0.891937,45.86351 13.520355,43.99527c23.721939,-3.075119 38.485123,-24.708755 29.319611,-37.194138c-7.306046,-7.196899 -16.881195,1.261154 -18.18663,2.273331c-3.043106,2.374649 -6.594147,3.822983 -5.568298,7.5961c4.335068,-3.138718 8.624863,-10.620651 16.448883,-9.24617c4.279709,0.747772 5.095673,6.711014 3.220276,11.519516c-2.472275,6.355606 -10.424744,11.717804 -19.294724,11.764191c-9.011734,0.054047 -17.05574,-5.012802 -17.072159,-13.662384c-0.016342,-7.71283 9.955811,-16.442215 14.474792,-17.458664c5.794098,-1.300659 13.516541,3.458054 18.183289,-2.273392c-8.24382,0.909164 -18.613113,-9.765549 -35.045395,2.686295m299.158524,21.546951c7.254028,94.855148 71.851624,-29.773178 112.048645,-23.713791c-40.197021,-25.034225 -86.342773,67.40036 -112.048645,23.713791m-35.592529,57.570328c-1.905609,-3.393921 -4.610474,-3.802979 -9.011841,-1.794159c-3.865906,1.542633 -5.744629,4.909576 -4.623047,9.557587c2.449524,5.43277 7.928925,5.623932 12.021423,2.867371c3.46286,-2.340851 4.154602,-6.660126 1.613464,-10.630798m10.077179,12.37796c-29.378662,7.733307 -19.908417,45.112183 -45.610901,45.112183c21.577209,-18.793427 -0.128448,-54.02594 29.316498,-70.461823c-18.301697,-78.587158 -113.796539,-130.309067 -144.36557,-136.392502c0,0 -2.676331,-6.573601 0.996552,-5.48674c122.35498,31.886017 154.695313,146.631287 159.663422,167.228882m-110.373138,-185.298012c3.479645,6.456009 -0.770599,18.686386 -10.575806,22.036339c30.677338,7.602966 70.202087,48.291321 89.448059,82.575119c-2.118011,-14.909744 -48.50293,-86.908035 -78.872253,-104.611458m-21.79718,-29.349968c-15.566589,-1.171005 -28.119415,5.663628 -22.921326,24.44014c2.265747,8.203102 12.054169,23.992012 24.423187,24.387749c24.827759,0.791588 18.210114,-24.393768 7.591431,-26.530579c0.026886,2.786728 4.587769,12.690529 -3.23288,14.863411c-8.031311,2.769569 -13.602173,-2.397842 -16.914734,-7.810753c-4.646637,-7.608971 1.924927,-16.107368 10.300507,-14.920082c60.353912,8.548218 118.803131,141.175552 120.230316,144.307373c0.02594,-11.600189 -53.671753,-153.797401 -119.476501,-158.737221m-57.068344,23.524956c4.381302,5.248055 4.741531,26.489395 10.634689,31.033524c-1.078735,-6.183876 0.819366,-18.846947 5.410492,-22.529106c10.090637,0.395752 15.438965,6.392471 23.666809,6.45256c-6.500183,-5.228325 -10.716888,-15.795761 -9.605469,-23.062218c-6.908936,6.669792 -18.412415,8.907082 -30.106522,8.10524m-29.57251,-28.072533c-5.534729,3.708794 -27.063354,14.429893 -53.559601,6.595963l0,3.665855c2.784042,1.824333 57.065323,21.730667 66.896515,23.542114c6.381775,0.388931 9.906784,-0.443001 12.153214,-5.138199c-7.516693,-0.794113 -24.135208,-8.698441 -25.490128,-28.665733m-24.236816,-6.690369c7.598236,-1.549625 18.950592,-7.086193 19.921906,-13.86755c1.032578,-7.250164 -4.955505,-9.027294 -10.310593,-9.623947c-16.39267,-1.827778 -31.959137,3.084667 -43.239761,15.228279c-7.794754,3.752586 -15.379623,8.196232 8.073532,4.637703c4.466309,-0.677353 14.350372,-3.041702 15.835358,-5.365696c-0.748001,-1.639759 -7.735672,-1.53933 -12.628265,-1.44833c3.99411,-3.689003 19.268616,-6.603642 24.200623,-5.117592c6.394333,1.917957 3.892685,8.54137 -2.682175,10.520241c-6.253342,1.87756 -18.209702,3.464085 -24.040176,4.660847c2.643036,2.103348 20.98027,1.170998 24.869553,0.376045m37.960754,-9.125141c-4.089142,14.997334 9.100006,27.546223 21.652878,27.546223c6.348145,0 14.11676,-4.004112 15.838531,-7.307625c7.142365,-13.709587 -17.740845,-25.027382 -22.607376,-12.112793c-0.389481,2.846863 4.544998,3.933716 5.047043,1.381371c0.266113,-1.032791 -1.164398,-0.764107 -0.898285,-1.797729c6.977875,-3.44352 14.62558,9.319977 6.466583,11.285133c-9.208328,2.216682 -18.019562,-6.747032 -15.585846,-15.560539c3.131226,-11.338364 20.370026,-5.345928 27.577881,-0.268719c-8.880066,-20.691013 -34.198914,-16.774464 -37.491409,-3.165321m225.385117,217.844097c-1.448914,-5.338806 -4.928558,-6.448883 -8.404053,-6.230896c-4.004364,0.261536 -7.214508,4.614563 -5.998108,9.785767c0.632965,2.682861 4.016876,5.573547 8.798615,4.450134c4.249512,-0.788116 6.764648,-3.554779 5.603546,-8.005005m49.28717,40.32663c-28.410767,8.105591 -42.328644,-32.073456 -66.204437,-24.356934c-5.171204,-37.794586 -37.596344,-185.780869 -103.548889,-226.962868c9.641479,-13.833233 28.457672,-25.017071 39.085663,-23.256229c-16.815765,-10.544296 -52.382294,-4.279724 -63.656555,8.561062c-8.87088,-3.024544 -114.268341,-64.93531 -179.702637,9.295963c-2.826645,3.206539 -29.175407,10.078075 -30.929787,14.363789c-2.66272,6.52211 25.017372,4.24881 28.647453,6.217369c30.116531,2.086159 82.344666,30.359543 103.955551,31.34256l-8.762527,2.766121c-17.396667,5.402603 -72.67775,-28.333466 -97.954163,-30.694374c-22.66938,-2.30426 -28.719582,-1.855293 -32.02504,-8.183357c-3.312035,-6.321205 13.677734,-10.412903 31.946396,-19.896023c58.960602,-79.640785 180.68605,-15.637833 183.254013,-16.738438c49.185455,-21.083351 71.005432,0.024059 77.278076,6.851791c-8.499817,1.97546 -21.393463,-0.261826 -37.77356,17.469013c64.574951,50.400715 86.306763,182.698322 89.819153,198.121464c38.852264,2.032318 31.971802,46.198792 66.571289,55.099091m-197.216309,-4.617798c19.193237,-1.579559 71.18512,60.75647 81.275696,-11.764282c-21.879547,42.080414 -72.911072,-2.005493 -81.275696,11.764282m-82.09581,-195.43251c5.91835,15.832718 40.541275,55.317398 50.572311,59.10347c0.514618,-2.468216 -8.184967,-33.404739 -4.843811,-45.849724c-2.370697,-0.248108 -6.0242,-0.479897 -9.277161,0c-1.235809,5.315041 0.747986,12.870827 0.856262,19.561241c-9.227661,-8.970657 -17.297653,-23.918205 -19.786682,-38.542946c-5.817612,2.46479 -11.559738,4.463394 -17.52092,5.727959m87.663376,-59.998852c-14.313324,-4.825684 -25.374359,-11.666302 -39.239319,-17.492161l-2.055908,1.97887c6.08963,4.899525 12.461365,9.198936 14.20578,18.549011c14.549988,-1.268021 29.053741,4.882359 41.098724,10.308147c3.531738,-14.040955 24.551605,-25.496956 33.054749,-28.16951c-2.318726,-1.280899 -33.24527,-2.257015 -47.064026,14.825642m-182.76506,8.729359c-5.99115,5.500504 -23.748283,6.553024 -23.584244,9.360367c0.101677,1.699844 24.623779,2.404709 31.549561,2.783287c1.298584,-2.49482 -0.859131,-5.258377 -2.971054,-6.452553c12.98259,-14.453915 31.631577,-27.659576 52.415375,-31.912621c13.529968,-2.769569 32.956467,0.728008 29.962891,15.41972c-0.491913,2.401249 -6.214691,14.886593 -22.93222,18.239979c-11.247467,2.257027 -25.16478,-1.532463 -35.963318,-1.504997c0.524673,2.749847 2.065887,3.031403 2.065887,3.031403c15.445313,-0.479897 32.343552,13.970619 58.698364,-6.308334c1.019974,12.166855 4.702805,27.854462 24.994827,30.527878c21.173553,2.790154 34.057892,-7.874313 37.015472,-20.269493c71.038116,-23.716434 121.043823,104.463776 125.785217,107.398163c-2.131531,-13.148941 -34.123413,-120.705143 -124.332153,-122.213505c2.128143,-12.660496 -30.152588,-45.471146 -52.701172,-14.799919c34.143585,-19.406698 46.516754,13.80315 41.4664,28.43478c-4.751526,13.756783 -28.979019,20.192223 -41.535217,1.653519c-7.541977,-11.140045 -7.410965,-35.141479 6.378418,-48.505959c-5.155319,1.847513 -46.118866,-20.120949 -106.313034,35.118286m362.884232,212.388222c47.417572,37.023346 38.790131,-19.188995 48.198273,-26.566605c-13.402466,-2.636459 -18.491455,35.953262 -48.198273,26.566605m-25.093048,-56.081421c2.554565,6.388245 7.725769,3.161911 12.516724,0.482483c4.575226,-2.572128 7.883575,-11.952209 8.113647,-16.760757c0.452454,-9.464218 -5.332428,-17.810654 -12.760162,-15.671295c-8.72229,2.521484 -14.037903,13.739685 -13.582062,22.747162c0.251831,3.112106 -2.574707,4.269409 -0.961212,5.553711c6.289398,-3.263168 2.731659,-10.187943 9.440826,-14.591248c3.325165,-2.190079 8.014648,-2.300827 10.267731,1.019043c2.757751,4.058212 -1.072815,13.16954 -6.762054,14.658264c-6.594147,1.72728 -1.026642,-9.332901 -3.686157,-8.839264c-2.990234,2.209778 -3.846497,8.24942 -2.58728,11.401901m-131.638153,-33.318008c-0.462524,4.926147 6.597626,8.779999 11.135834,4.932999c3.457001,-9.211807 -10.463379,-12.12648 -11.135834,-4.932999m-123.961792,-0.3992c-2.600754,11.117722 16.172684,11.637115 16.392624,-0.425842c0.108307,-6.055939 -14.694382,-6.850906 -16.392624,0.425842m-63.092926,0.758057c1.25267,-4.238464 -3.800598,-7.095596 -8.165329,-6.069702c-10.162323,6.076584 5.433716,15.302185 8.165329,6.069702m308.930481,-10.010254c-1.304535,-5.828461 -14.887421,-5.238663 -13.136292,2.042389c1.728455,6.656906 14.500519,4.09169 13.136292,-2.042389m90.034912,-14.276199c-0.094971,5.677353 8.595398,8.695847 11.874512,3.034851c1.72168,-8.078613 -11.723511,-11.868103 -11.874512,-3.034851m-33.657532,-6.412247c1.199585,7.599564 14.644836,5.117584 14.684143,-0.660202c0.042847,-5.138184 -1.862671,-8.159286 -7.532532,-8.169586c-5.187317,-0.006897 -7.92572,3.954285 -7.151611,8.829788m-53.556702,-13.705246c-0.921783,7.36084 11.975281,7.162552 13.356201,1.136627c1.987152,-8.648621 -12.120514,-11.019867 -13.356201,-1.136627m86.102722,-12.525742c1.05603,7.230423 13.533264,4.416229 11.871155,-3.417709c-0.488525,-2.336891 -3.354553,-5.02314 -7.417725,-3.792946c-2.547852,0.771812 -5.026794,3.280388 -4.45343,7.210655m-246.270844,-33.136841c14.087524,-1.650063 11.018372,18.974838 -1.547943,13.407394c-0.777374,-0.341728 -3.862427,-2.336876 -3.862427,-6.247406c0,-4.19899 1.747833,-6.734161 5.41037,-7.159988"/>
     </g>
    </g>
   </g>
  </g>
 </g>
</svg>