<?xml version="1.0" standalone="no"?>
<!DOCTYPE svg PUBLIC "-//W3C//DTD SVG 20010904//EN"
 "http://www.w3.org/TR/2001/REC-SVG-20010904/DTD/svg10.dtd">
<svg version="1.0" xmlns="http://www.w3.org/2000/svg"
 width="1280.000000pt" height="840.000000pt" viewBox="0 0 1280.000000 840.000000"
 preserveAspectRatio="xMidYMid meet">
<g transform="translate(0.000000,840.000000) scale(0.100000,-0.100000)"
fill="#000000" stroke="none">
<path d="M2375 8389 c-238 -38 -308 -53 -415 -89 -407 -133 -732 -415 -920
-795 -145 -294 -198 -550 -187 -910 10 -363 102 -710 292 -1103 321 -664 856
-1318 1473 -1800 144 -112 447 -314 607 -403 430 -240 928 -421 1347 -489 146
-24 374 -41 402 -30 26 9 41 4 -209 69 -693 181 -1269 455 -1810 861 -824 618
-1529 1587 -1748 2400 -49 179 -66 294 -74 475 -11 292 37 541 151 780 339
705 1207 954 2006 574 232 -111 427 -249 633 -448 272 -263 471 -548 667 -954
220 -457 349 -866 570 -1812 203 -873 326 -1335 351 -1320 15 10 -23 294 -122
915 -112 698 -172 1012 -265 1380 -185 738 -444 1298 -812 1760 -95 118 -309
333 -422 424 -273 218 -589 379 -899 456 -213 54 -487 80 -616 59z"/>
<path d="M7304 8010 c-522 -54 -1007 -438 -1307 -1036 -329 -655 -452 -1464
-351 -2309 46 -387 145 -795 232 -960 l21 -40 1 38 c0 20 -13 144 -29 275 -78
627 -86 1121 -25 1612 96 772 415 1477 832 1835 303 261 672 361 992 268 247
-71 461 -256 593 -512 123 -237 170 -491 148 -783 -37 -465 -206 -889 -529
-1328 -275 -373 -616 -693 -1160 -1089 -183 -133 -229 -171 -208 -171 21 0
174 64 277 116 365 182 713 436 1019 743 272 273 458 527 610 836 186 377 264
685 264 1045 0 449 -131 809 -396 1087 -181 189 -408 315 -642 358 -108 19
-243 25 -342 15z"/>
<path d="M10205 7944 c-179 -25 -264 -48 -370 -100 -179 -87 -246 -152 -295
-282 -32 -81 -38 -213 -15 -298 38 -141 169 -222 315 -194 174 32 332 191 359
362 23 139 -36 281 -145 349 -19 12 -33 26 -31 32 11 35 272 54 392 28 318
-68 554 -304 637 -637 30 -119 32 -376 5 -503 -116 -537 -558 -1129 -1163
-1558 -420 -298 -902 -496 -1471 -604 -67 -12 -120 -25 -118 -28 9 -9 198 0
304 14 336 44 646 141 976 305 362 179 631 375 915 666 164 168 241 263 371
457 215 323 323 617 336 918 14 328 -78 597 -276 802 -121 127 -261 208 -422
247 -81 19 -245 32 -304 24z"/>
<path d="M11642 6384 c-73 -19 -108 -39 -168 -96 -89 -84 -127 -208 -101 -331
10 -49 75 -121 137 -152 178 -90 359 -67 503 65 102 93 142 222 103 336 -9 26
-16 49 -16 51 0 11 40 -2 103 -33 450 -225 598 -768 343 -1261 -167 -322 -497
-582 -931 -733 -451 -156 -1117 -240 -1687 -211 -438 22 -743 68 -1240 186
-59 14 -113 25 -120 25 -47 -1 186 -90 375 -144 719 -207 1490 -243 2242 -106
672 123 1154 402 1419 824 95 152 150 305 182 513 16 98 16 123 5 195 -44 283
-127 457 -296 616 -149 141 -315 214 -571 252 -161 23 -209 24 -282 4z"/>
<path d="M3232 5850 c-259 -69 -427 -289 -449 -586 -20 -278 132 -638 392
-929 337 -376 855 -755 1390 -1016 112 -55 162 -75 166 -66 17 30 33 282 32
487 -2 490 -97 917 -290 1293 -206 403 -515 700 -833 803 -117 37 -299 44
-408 14z"/>
<path d="M6576 5829 c-103 -25 -224 -115 -300 -223 -118 -166 -173 -339 -201
-631 -26 -263 -14 -549 35 -828 11 -66 20 -122 20 -125 0 -4 4 -13 9 -21 7
-11 21 -6 72 24 367 221 656 539 794 875 73 178 103 420 72 568 -47 217 -198
361 -386 368 -42 2 -93 -1 -115 -7z"/>
<path d="M7777 4359 c-65 -10 -123 -46 -190 -118 -67 -73 -113 -163 -129 -251
-6 -36 -14 -68 -18 -73 -3 -4 -65 -16 -136 -26 -182 -27 -284 -55 -394 -108
-263 -127 -386 -404 -257 -576 49 -64 106 -89 192 -84 130 7 200 64 357 292
108 155 251 325 275 325 8 0 24 -11 34 -24 27 -35 98 -66 150 -66 102 0 213
70 292 186 64 94 89 169 89 267 1 67 -4 86 -28 135 -49 95 -131 137 -237 121z"/>
<path d="M6314 3279 c-48 -14 -127 -91 -164 -160 -45 -86 -53 -183 -18 -248
31 -61 65 -83 124 -84 131 -1 268 158 269 313 0 87 -25 137 -85 168 -47 23
-75 26 -126 11z"/>
<path d="M2091 2999 c-527 -33 -1014 -171 -1350 -382 -186 -116 -390 -303
-487 -447 -145 -213 -228 -445 -251 -701 -7 -71 29 -284 68 -400 181 -557 743
-958 1454 -1039 55 -6 128 -15 161 -20 78 -13 203 -13 296 0 40 5 118 14 173
20 663 75 1321 422 1771 933 321 366 496 716 557 1110 2 15 1 27 -4 27 -4 0
-55 -96 -112 -212 -108 -220 -224 -406 -353 -568 -95 -119 -319 -340 -444
-440 -695 -553 -1601 -744 -2365 -500 -442 142 -768 449 -877 826 -33 114 -33
342 -1 461 53 191 154 357 317 518 122 122 209 186 367 269 315 166 710 271
1153 306 181 14 609 14 806 0 450 -32 946 -104 1505 -218 295 -61 329 -66 319
-51 -9 15 -143 76 -279 127 -713 267 -1724 426 -2424 381z"/>
<path d="M5784 2841 c-59 -34 -127 -118 -155 -190 -25 -67 -25 -171 0 -227 56
-123 211 -120 325 6 47 52 92 146 101 210 13 92 -29 182 -102 219 -41 21 -114
13 -169 -18z"/>
<path d="M3312 2394 c-474 -69 -867 -323 -972 -630 -93 -268 47 -518 330 -590
94 -24 265 -15 385 21 244 72 487 233 779 515 71 69 169 172 219 230 110 127
269 340 264 353 -7 22 -236 78 -417 103 -133 17 -463 17 -588 -2z"/>
<path d="M5397 2296 c-96 -49 -182 -113 -268 -202 -124 -129 -216 -268 -335
-505 -94 -188 -117 -263 -118 -379 -1 -108 12 -155 57 -206 40 -46 77 -64 129
-63 141 2 243 108 389 404 129 262 191 463 218 707 13 115 14 265 3 272 -5 3
-38 -10 -75 -28z"/>
</g>
</svg>
